<?xml version="1.0" encoding="UTF-8" standalone="no"?>
<!-- Created with Inkscape (http://www.inkscape.org/) -->

<svg
   xmlns:dc="http://purl.org/dc/elements/1.1/"
   xmlns:cc="http://creativecommons.org/ns#"
   xmlns:rdf="http://www.w3.org/1999/02/22-rdf-syntax-ns#"
   xmlns:svg="http://www.w3.org/2000/svg"
   xmlns="http://www.w3.org/2000/svg"
   xmlns:xlink="http://www.w3.org/1999/xlink"
   xmlns:sodipodi="http://sodipodi.sourceforge.net/DTD/sodipodi-0.dtd"
   xmlns:inkscape="http://www.inkscape.org/namespaces/inkscape"
   width="5.5cm"
   height="5.5cm"
   viewBox="0 0 194.88188 194.88188"
   id="svg4315"
   version="1.1"
   inkscape:version="0.91 r13725"
   sodipodi:docname="Aufkleber.svg">
  <defs
     id="defs4317">
    <path
       sodipodi:nodetypes="cc"
       inkscape:connector-curvature="0"
       id="path3406"
       d="M 287.23325,430.76833 C 352.58753,418.51034 417.46528,371.54204 432.31967,287.44689"
       style="fill:none;fill-rule:evenodd;stroke:none;stroke-width:1.00492573px;stroke-linecap:butt;stroke-linejoin:miter;stroke-opacity:1" />
    <inkscape:path-effect
       effect="spiro"
       id="path-effect5678"
       is_visible="true" />
    <inkscape:path-effect
       effect="spiro"
       id="path-effect5682"
       is_visible="true" />
    <inkscape:path-effect
       effect="spiro"
       id="path-effect5686"
       is_visible="true" />
    <inkscape:path-effect
       effect="spiro"
       id="path-effect5690"
       is_visible="true" />
    <inkscape:path-effect
       effect="spiro"
       id="path-effect5694"
       is_visible="true" />
    <inkscape:path-effect
       effect="spiro"
       id="path-effect5698"
       is_visible="true" />
    <inkscape:path-effect
       effect="spiro"
       id="path-effect5702"
       is_visible="true" />
    <inkscape:path-effect
       effect="spiro"
       id="path-effect5706"
       is_visible="true" />
    <inkscape:path-effect
       effect="spiro"
       id="path-effect5710"
       is_visible="true" />
  </defs>
  <sodipodi:namedview
     id="base"
     pagecolor="#ffffff"
     bordercolor="#666666"
     borderopacity="1.0"
     inkscape:pageopacity="0.0"
     inkscape:pageshadow="2"
     inkscape:zoom="1.979899"
     inkscape:cx="9.6644057"
     inkscape:cy="186.12563"
     inkscape:document-units="px"
     inkscape:current-layer="g4237"
     showgrid="true"
     fit-margin-top="0"
     fit-margin-left="0"
     fit-margin-right="0"
     fit-margin-bottom="0"
     inkscape:window-width="1920"
     inkscape:window-height="1136"
     inkscape:window-x="0"
     inkscape:window-y="27"
     inkscape:window-maximized="1"
     units="cm"
     showguides="true"
     inkscape:guide-bbox="true">
    <inkscape:grid
       type="xygrid"
       id="grid4208"
       dotted="true"
       units="cm"
       spacingx="8.8582669"
       spacingy="8.8582669" />
    <sodipodi:guide
       position="8.8582669,124.01574"
       orientation="1,0"
       id="guide4267" />
    <sodipodi:guide
       position="186.0236,106.2992"
       orientation="1,0"
       id="guide4269" />
    <sodipodi:guide
       position="97.440936,186.0236"
       orientation="0,1"
       id="guide4271" />
    <sodipodi:guide
       position="115.15747,8.8582669"
       orientation="0,1"
       id="guide4273" />
  </sodipodi:namedview>
  <metadata
     id="metadata4320">
    <rdf:RDF>
      <cc:Work
         rdf:about="">
        <dc:format>image/svg+xml</dc:format>
        <dc:type
           rdf:resource="http://purl.org/dc/dcmitype/StillImage" />
        <dc:title></dc:title>
      </cc:Work>
    </rdf:RDF>
  </metadata>
  <g
     inkscape:label="Ebene 1"
     inkscape:groupmode="layer"
     id="layer1"
     transform="translate(-164.61238,-190.01082)">
    <g
       transform="translate(85.576279,-58.95675)"
       style="display:inline"
       id="g4237">
      <text
         xml:space="preserve"
         style="font-style:normal;font-variant:normal;font-weight:normal;font-stretch:normal;font-size:9.40014553px;line-height:125%;font-family:sans-serif;-inkscape-font-specification:sans-serif;text-align:start;letter-spacing:0.7045607px;word-spacing:0px;text-anchor:start;fill:#ffffff;fill-opacity:1;stroke:none;stroke-width:1px;stroke-linecap:butt;stroke-linejoin:miter;stroke-opacity:1"
         id="text4499"
         sodipodi:linespacing="125%"
         x="42.246407"
         y="214.94341"><textPath
           id="textPath3434"
           xlink:href="#path3406"><tspan
   dx="0 0 0 0 0 0 0 0 0 0"
   style="font-style:normal;font-variant:normal;font-weight:normal;font-stretch:condensed;font-size:14.68772888px;font-family:Impact;-inkscape-font-specification:'Impact Condensed';text-align:start;letter-spacing:0.7045607px;text-anchor:start;fill:#ffffff"
   id="tspan4501">freifunk-myk.de</tspan></textPath></text>
      <g
         id="g4301">
        <circle
           r="77.107788"
           cy="346.07614"
           cx="175.93724"
           id="path4407"
           style="opacity:1;fill:#ffffff;fill-opacity:1;stroke:none;stroke-width:3;stroke-miterlimit:4;stroke-dasharray:none;stroke-opacity:0.99215686" />
        <circle
           style="opacity:1;fill:#ffffff;fill-opacity:1;stroke:none;stroke-width:3;stroke-miterlimit:4;stroke-dasharray:none;stroke-opacity:1"
           id="path5452"
           cx="176.26175"
           cy="346.37125"
           r="88.654213" />
        <path
           style="fill:#009ee0;fill-opacity:1;fill-rule:evenodd;stroke:none;stroke-width:1px;stroke-linecap:butt;stroke-linejoin:miter;stroke-opacity:1"
           d="m 177.06407,395.47179 c 0,0 13.69731,6.88218 20.44629,4.68561 14.86361,-4.8376 29.74859,-21.08561 34.62481,-37.97168 -34.57136,0.97005 -81.41304,-0.21161 -81.41304,-0.21161 l 26.34194,33.90676 z"
           id="path5796"
           inkscape:connector-curvature="0"
           sodipodi:nodetypes="cscccc" />
        <path
           style="fill:#000000;fill-opacity:1;fill-rule:evenodd;stroke:#000000;stroke-width:0.61768925px;stroke-linecap:butt;stroke-linejoin:miter;stroke-opacity:1"
           d="m 156.45017,347.84843 -3.89975,1.40391 -1.71589,1.87188 -2.02787,2.33985 -3.74376,-0.31198 -2.33984,0.77996 -3.43179,2.80782 -4.21946,2.66636 -3.80987,3.00955 8.87921,-0.44762 41.11146,1.01131 49.8167,-0.83695 c 1.24179,-4.55731 1.92446,-9.47899 2.12415,-12.95489 l -7.32769,-1.80717 -12.63519,-0.15599 -9.67139,-1.71589 -25.58238,-1.24792 -0.46797,-0.93594 -3.89975,0.31198 0,1.55989 -3.1198,-0.62396 -2.33985,0.31199 -2.49585,0.46797 -1.7159,1.5599 -3.43177,-0.62396 -3.2758,1.40392 z"
           id="path5658"
           inkscape:connector-curvature="0"
           sodipodi:nodetypes="ccccccccccccccccccccccccccc" />
        <path
           style="fill:#ffffff;fill-opacity:1;fill-rule:evenodd;stroke:#000000;stroke-width:0.61768925px;stroke-linecap:butt;stroke-linejoin:miter;stroke-opacity:1"
           d="m 156.91814,350.34426 0,-2.49583 4.9917,0 1.5599,-1.24792 1.55989,0 0,-0.31198 2.80782,-0.31198 0.93595,0.93594 10.29534,-1.24792 0.31199,-3.11979 7.48751,0.31197 0.31199,1.5599 5.92763,-1.24791 0.31197,-2.49585 6.23961,0.31198 -0.31198,3.43178 4.05573,-0.93594 -0.31196,4.36772 z"
           id="path5648"
           inkscape:connector-curvature="0"
           sodipodi:nodetypes="ccccccccccccccccccc" />
        <path
           style="fill:#000000"
           d="m 121.9889,364.78007 c 2.29553,-1.31171 3.02021,-0.33246 3.02021,-0.33246 l -9.1e-4,-0.79626 0.56017,0 c 0.48161,0 0.67634,-0.11992 1.38815,-0.85483 l 0.82794,-0.85483 1.53154,-0.0931 1.53154,-0.0932 0.0276,-0.80925 c 0.0254,-0.74607 -0.007,-0.82895 -0.41069,-1.0608 -0.31116,-0.17858 -0.41869,-0.33975 -0.37079,-0.55579 0.0372,-0.16731 0.17426,-1.12327 0.30477,-2.12427 0.13051,-1.00106 0.37363,-2.5367 0.54026,-3.41263 0.27757,-1.45911 0.29184,-2.47445 0.0471,-3.35039 -0.0396,-0.14218 0.3458,-0.73352 0.93937,-1.44089 1.68588,-2.00903 2.09169,-2.72996 2.08394,-3.70229 -0.004,-0.45882 -0.15909,-1.34609 -0.3454,-1.97173 -0.30427,-1.02176 -0.32992,-1.35218 -0.25207,-3.24654 0.0477,-1.15994 0.0402,-2.06251 -0.0165,-2.00573 -0.0569,0.0568 -0.12543,0.25507 -0.15252,0.44062 -0.0271,0.18554 -0.15212,0.69478 -0.27781,1.13161 -0.17653,0.61351 -0.33278,0.84817 -0.68652,1.03109 -0.40273,0.20829 -0.45669,0.31369 -0.4474,0.87411 0.006,0.35051 -0.034,0.99526 -0.0884,1.43281 -0.0577,0.46395 -0.0355,0.87482 0.0533,0.98584 0.0839,0.10472 0.13107,0.63403 0.10497,1.17623 -0.051,1.05847 -0.489,2.12549 -1.17449,2.86098 -0.20502,0.21997 -0.41747,0.65179 -0.47212,0.95959 -0.0657,0.36983 -0.26477,0.69613 -0.58713,0.96218 -0.58742,0.48481 -1.12132,1.19132 -1.85866,2.45957 -0.30312,0.52138 -0.60556,0.94794 -0.67209,0.94794 -0.0665,0 -0.36779,-0.27323 -0.66946,-0.60714 -0.49777,-0.55096 -0.5485,-0.68871 -0.5485,-1.4893 0,-0.79229 0.0617,-0.96492 0.60538,-1.69361 0.33296,-0.44626 0.74691,-1.18963 0.91987,-1.65189 0.35414,-0.94656 0.31245,-1.71921 -0.17533,-3.24898 -0.24518,-0.76894 -0.27462,-1.3044 -0.23342,-4.2468 0.0428,-3.05291 0.0785,-3.44783 0.3844,-4.23411 0.38962,-1.00184 1.47716,-2.08073 2.12264,-2.10578 1.22855,-0.0477 3.22607,0.21214 4.84674,0.63047 1.00026,0.25818 1.15848,0.26473 1.54709,0.0638 0.23808,-0.12313 0.53865,-0.22383 0.66791,-0.22383 0.12928,0 0.23505,-0.0683 0.23505,-0.1517 0,-0.0834 -0.12815,-0.15166 -0.28477,-0.15166 -0.15663,0 -0.36975,-0.10239 -0.4736,-0.2275 -0.15063,-0.18151 -0.15063,-0.22753 0,-0.22753 0.14812,0 0.14932,-0.0476 0.006,-0.22084 -0.25084,-0.30226 -0.078,-0.52343 0.65866,-0.84306 0.55386,-0.24035 1.92208,-0.50448 3.06555,-0.59183 0.0911,-0.008 0.25138,-0.40511 0.35639,-0.88475 0.36066,-1.64737 1.07893,-3.45693 1.6955,-4.27156 0.56312,-0.744 0.58715,-0.81495 0.33798,-0.99713 -0.22901,-0.16746 -0.24139,-0.25513 -0.0846,-0.59931 0.14944,-0.328 0.14125,-0.48519 -0.0438,-0.84325 -0.12518,-0.24208 -0.2276,-0.47818 -0.2276,-0.52467 0,-0.0465 0.42281,-0.28937 0.93958,-0.53969 0.51677,-0.25034 1.13601,-0.69344 1.37608,-0.98468 0.27994,-0.33964 0.56855,-0.52957 0.80464,-0.52957 0.33266,0 0.36814,-0.0629 0.36814,-0.6522 0,-0.70355 -0.1991,-1.01618 -0.64713,-1.01618 -0.38994,0 -1.32579,-0.73907 -1.31922,-1.04177 0.01,-0.43208 0.35388,-0.89408 1.03374,-1.38632 0.53135,-0.3847 0.79264,-0.75797 1.34106,-1.91565 0.76098,-1.60648 1.15108,-1.9287 1.81126,-1.49613 0.3207,0.21016 0.36186,0.35915 0.38862,1.40697 0.0164,0.64457 0.0123,1.46913 -0.01,1.83234 -0.0237,0.39975 0.045,0.75887 0.17407,0.90999 0.11727,0.13735 0.33044,0.55175 0.47368,0.92091 0.24094,0.62093 0.24179,0.68168 0.0113,0.81066 -0.20967,0.11736 -0.23526,0.31976 -0.16137,1.27688 0.0809,1.04825 0.0641,1.1436 -0.21526,1.21664 -0.49158,0.12858 -0.37051,0.68029 0.23542,1.07284 0.2941,0.19055 0.49962,0.40324 0.45672,0.47265 -0.0429,0.0694 0.0585,0.24975 0.22526,0.40073 0.42072,0.38073 0.79261,1.76588 0.80223,2.98791 l 0.009,1.02492 0.66297,0 c 1.19015,0 1.24973,-0.0908 1.24973,-1.90596 0,-1.30552 0.0428,-1.60839 0.2377,-1.68319 0.4511,-0.1731 0.55938,0.19904 0.53144,1.82637 -0.0218,1.26815 0.0245,1.67577 0.22542,1.9823 0.25774,0.39335 0.20625,1.32339 -0.0934,1.68625 -0.0848,0.10273 0.16437,0.45556 0.68488,0.96959 l 0.81826,0.80808 2.06054,-2.04037 c 2.6204,-2.59472 3.16097,-2.91189 5.03155,-2.95215 2.34832,-0.0506 4.69537,0.58212 4.94571,1.33316 0.0433,0.1297 0.4079,0.19619 1.11509,0.2033 0.9594,0.01 1.09332,-0.0284 1.53893,-0.43679 0.42018,-0.38512 0.50158,-0.4122 0.58512,-0.19447 0.0533,0.13911 0.0443,0.44043 -0.0201,0.66965 -0.0644,0.22922 -0.13157,0.87007 -0.14921,1.4241 -0.0319,1.00364 -0.35895,2.13972 -0.82335,2.86027 -0.32441,0.5034 -0.77699,1.6488 -1.59121,4.02718 -0.66473,1.94166 -1.01534,2.49467 -1.58165,2.49467 -0.49324,0 -0.88444,-0.43156 -0.99009,-1.09225 l -0.1037,-0.64845 -0.48535,0.57725 c -0.35875,0.42664 -0.55686,0.54965 -0.75949,0.47159 -0.15137,-0.0583 -0.23819,-0.19934 -0.19384,-0.31489 0.0982,-0.25589 -0.16685,-0.99221 -0.41363,-1.14915 -0.29869,-0.18993 -0.89453,-0.13903 -0.82469,0.0704 0.0348,0.10427 0.14281,0.1981 0.24014,0.20854 0.0973,0.0105 0.27933,0.0273 0.40446,0.0379 0.12513,0.0105 0.2275,0.0961 0.2275,0.19044 0,0.11132 -0.18632,0.14129 -0.53084,0.0854 -0.29197,-0.0473 -0.53085,-0.022 -0.53085,0.056 0,0.0782 0.0853,0.14428 0.18959,0.14694 0.27954,0.008 0.76043,0.40758 0.60489,0.50373 -0.0735,0.0454 -0.31132,-0.01 -0.5284,-0.12213 -0.3926,-0.20369 -0.39571,-0.20065 -0.59009,0.5765 -0.19954,0.79785 -0.23481,1.58127 -0.0884,1.96285 0.045,0.11735 0.31736,0.3523 0.6052,0.52212 l 0.52334,0.30878 0.47611,-0.3726 c 0.38963,-0.30496 0.4761,-0.48082 0.4761,-0.96832 0,-0.34103 0.0732,-0.59569 0.17106,-0.59569 0.11307,0 0.13986,0.19507 0.079,0.57543 -0.0822,0.51351 -0.0258,0.65564 0.52407,1.32098 0.4904,0.59344 0.59907,0.8306 0.53272,1.16238 -0.0764,0.38234 0.25271,1.46362 0.5002,1.64302 0.15715,0.11394 0.61966,1.1532 0.61966,1.39239 0,0.11498 -0.13177,0.30402 -0.29282,0.42008 -0.28487,0.20534 -0.28076,0.22856 0.15167,0.85708 0.24447,0.35534 0.44448,0.81378 0.44448,1.01885 0,0.35784 0.52892,2.32875 1.0011,3.73033 0.26619,0.7902 0.19007,1.24523 -0.42304,2.52876 -0.30089,0.62988 -0.70795,1.15807 -1.25955,1.63426 -0.44822,0.38699 -0.85364,0.70363 -0.90093,0.70363 -0.0472,0 -0.0859,-0.43964 -0.0859,-0.97693 0,-0.5373 -0.0683,-1.01911 -0.15166,-1.07064 -0.22291,-0.13777 -0.18478,-0.53085 0.0514,-0.53085 0.11173,0 0.2843,-0.1781 0.38347,-0.39574 0.1345,-0.29522 0.2601,-0.3749 0.49437,-0.31361 0.26539,0.0694 0.29839,0.0307 0.21302,-0.24888 -0.0555,-0.18205 -0.15613,-0.80874 -0.22346,-1.39269 -0.13831,-1.19945 -0.56761,-2.94256 -0.79139,-3.21343 -0.14613,-0.17683 -0.62776,-0.25034 -2.81966,-0.43051 l -1.09963,-0.0904 -9.1e-4,0.57797 c -0.002,0.844 -0.51547,2.83573 -1.06878,4.14222 -0.75185,1.77525 -0.81804,2.31332 -0.36645,2.97874 0.20603,0.30361 0.3746,0.69947 0.3746,0.8797 0,0.18024 0.076,0.40365 0.16879,0.49646 0.26009,0.2601 0.0237,0.48845 -0.6106,0.58987 -0.52828,0.0845 -0.58773,0.14429 -0.71685,0.72086 -0.0775,0.34579 -0.11864,0.73108 -0.0916,0.85622 0.0469,0.21705 1.49051,1.21387 2.04396,1.41141 0.15494,0.0553 0.22736,0.18637 0.17637,0.31923 -0.12263,0.31952 0.38067,0.79314 0.97916,0.92139 0.29166,0.0625 0.86661,0.43334 1.34867,0.86991 0.94406,0.85494 1.61582,1.19267 3.12328,1.57029 0.57029,0.14285 1.06051,0.33526 1.08937,0.42759 0.0288,0.0923 0.0974,0.89572 0.15228,1.78531 0.0982,1.59228 0.10608,1.61898 0.50319,1.71472 1.61825,0.39009 1.54092,0.33656 1.54092,1.0663 0,0.73736 -0.12858,0.65265 1.66839,1.09922 0.50152,0.12465 0.53337,0.1708 0.57675,0.8358 0.0331,0.50759 0.1177,0.72344 0.30334,0.77412 0.14159,0.0387 0.61576,0.15132 1.0537,0.2503 l 0.79628,0.18005 0,2.55433 c 0,1.70195 0.0559,2.58892 0.1677,2.65798 0.18918,0.11694 3.05723,0.36381 3.15896,0.27192 0.0361,-0.0326 -0.0101,-0.13524 -0.10289,-0.22798 -0.12369,-0.12368 -0.12202,-0.2432 0.007,-0.44871 0.13347,-0.21371 0.1309,-0.3241 -0.0108,-0.46586 -0.45387,-0.45388 0.13326,-0.58122 0.95174,-0.20645 0.42674,0.1954 0.43264,0.20911 0.0948,0.22069 -0.31664,0.0108 -0.34935,0.0666 -0.27039,0.46143 0.0494,0.24702 0.0238,0.48994 -0.0568,0.5398 -0.29702,0.18357 -0.13096,0.36866 0.47779,0.53257 l 0.6245,0.16818 -0.0557,1.61725 -0.0557,1.61726 0.45501,0.0791 c 0.36494,0.0634 0.46486,0.16513 0.50478,0.51379 0.0866,0.75607 -0.0828,1.10994 -0.57865,1.20909 -0.32764,0.0655 -0.45697,0.17831 -0.45697,0.39855 0,0.25293 -0.10037,0.308 -0.56876,0.31197 -0.57,0.005 -0.84628,0.14779 -1.22876,0.6359 -0.17757,0.22664 -0.14243,0.36323 0.26314,1.02237 0.40098,0.65167 0.46552,0.89692 0.45003,1.71014 -0.01,0.52216 0.0311,1.15795 0.0913,1.41287 0.0799,0.33874 0.0445,0.51728 -0.13131,0.66321 -0.15988,0.13267 -0.24058,0.44942 -0.24058,0.9442 0,0.52189 -0.0681,0.77063 -0.22751,0.83182 -0.18582,0.0713 -0.22751,0.44272 -0.22751,2.02676 0,1.06666 0.72998,3.44015 24.60686,4.75949 -38.49107,17.45288 -70.27062,-8.17875 -78.89121,-34.11685 z m 16.67516,-3.3317 c 0.0608,-0.0376 0.15903,-0.45538 0.21813,-0.9284 0.0591,-0.47298 0.1406,-0.94637 0.18111,-1.05195 0.0405,-0.10562 -0.0681,-0.33379 -0.24138,-0.50705 -0.32674,-0.32676 -0.41276,-0.61842 -0.18236,-0.61842 0.073,0 0.17329,-0.20289 0.22288,-0.45085 0.0495,-0.24798 0.21791,-0.53062 0.37402,-0.62811 0.27375,-0.17094 0.2743,-0.19675 0.0157,-0.7246 -0.14747,-0.30106 -0.63144,-0.97173 -1.0755,-1.49036 -0.86723,-1.01296 -3.33861,-3.07627 -3.68465,-3.07627 -0.19756,0 -1.37032,1.41638 -1.73144,2.09117 -0.24158,0.4514 -0.60209,3.13219 -0.58326,4.3373 0.0148,0.95525 0.0564,1.0235 0.48751,1.45584 0.25917,0.25994 0.59953,0.82695 0.75637,1.18568 l 0.28515,0.65229 2.42351,-0.089 c 1.33293,-0.0489 2.47332,-0.1197 2.5342,-0.15735 z m 14.96569,-0.39646 c -0.048,-0.35742 -0.01,-0.74606 0.088,-0.90315 0.22368,-0.35817 0.16492,-0.40005 -0.65051,-0.46373 -0.65539,-0.0512 -0.68452,-0.0359 -0.73283,0.38778 -0.0277,0.24256 -0.009,0.66515 0.0432,0.9391 0.0828,0.44182 0.15705,0.5047 0.65699,0.55722 0.30995,0.0326 0.5896,0.0707 0.62144,0.0847 0.0319,0.0139 0.02,-0.25683 -0.0262,-0.6019 z m -12.15155,0.34185 c 0.27319,-0.0784 0.56803,-0.0772 0.71096,0.004 0.17859,0.0999 0.38032,0.0172 0.75082,-0.30814 0.57996,-0.50924 1.52251,-0.75194 1.85343,-0.47728 0.17576,0.14588 0.26287,0.0897 0.46379,-0.29878 0.19728,-0.38152 0.21419,-0.57362 0.0835,-0.94862 -0.22689,-0.65085 -0.0175,-0.75303 1.3345,-0.65131 1.02002,0.0767 1.10617,0.0612 1.00513,-0.1809 -0.44425,-1.06479 -0.44451,-1.0691 -0.11635,-1.88854 0.17687,-0.44166 0.36727,-1.20376 0.42309,-1.69352 0.0558,-0.48975 0.18994,-1.13813 0.29802,-1.44088 0.3749,-1.05004 1.6414,-2.98148 2.77082,-4.22549 0.73065,-0.8048 1.10389,-1.33223 1.04723,-1.47983 -0.0485,-0.12619 -0.1657,-0.22939 -0.26066,-0.22939 -0.095,0 -0.13337,0.10237 -0.0854,0.2275 0.0541,0.14102 -9.1e-4,0.22751 -0.14439,0.22751 -0.12886,0 -0.18628,-0.0735 -0.12934,-0.16563 0.15179,-0.24558 -1.89742,0.004 -2.32339,0.28163 -0.18867,0.12352 -0.3825,0.38181 -0.43074,0.57395 -0.0483,0.19219 -0.21805,0.4674 -0.37739,0.6116 -0.15934,0.1442 -0.29298,0.37103 -0.29699,0.5041 -0.004,0.13305 -0.13519,0.48077 -0.29152,0.77277 -0.15634,0.29195 -0.43101,0.847 -0.6104,1.23346 -0.17939,0.38642 -0.52793,0.89587 -0.7745,1.1321 -0.43229,0.41414 -0.46309,0.42081 -0.8611,0.18548 -0.43966,-0.25989 -1.23753,-1.5358 -1.24343,-1.98843 -0.002,-0.14938 -0.14392,-0.46144 -0.3155,-0.69351 -0.17157,-0.23207 -0.40066,-0.67996 -0.50908,-0.99532 -0.16213,-0.47163 -0.21146,-0.51853 -0.27798,-0.26418 -0.0445,0.17009 0.0114,0.4871 0.12422,0.70453 0.27837,0.53658 0.41827,1.35057 0.29752,1.731 -0.12486,0.39343 -0.98458,0.66333 -1.90114,0.59689 -0.64717,-0.0469 -0.68498,-0.075 -0.73004,-0.54243 -0.0372,-0.38518 -0.11741,-0.49293 -0.36723,-0.49293 -0.17584,0 -0.42746,-0.0966 -0.55917,-0.2148 -0.13169,-0.11814 -0.6057,-0.28092 -1.05334,-0.36167 l -0.81389,-0.14687 0.0775,0.57749 c 0.0759,0.56612 0.63054,1.44867 2.26568,3.60547 0.62997,0.83093 0.72505,1.05071 0.72183,1.66834 -0.002,0.39129 -0.0757,1.01851 -0.16355,1.39391 -0.088,0.37538 -0.17642,0.81903 -0.19667,0.98585 -0.0932,0.7677 -0.73857,2.3677 -0.92607,2.29575 -0.10845,-0.0416 -0.23121,0.056 -0.27341,0.21736 -0.0676,0.2584 0.007,0.29281 0.63067,0.29281 0.38898,0 0.91728,-0.0602 1.17401,-0.13386 z m 14.92585,-1.61037 c 0,-0.73403 -0.0822,-0.80445 -0.53978,-0.46249 -0.28904,0.21597 -0.28818,0.22443 0.0469,0.46361 0.18768,0.13399 0.34126,0.34212 0.34126,0.46251 0,0.1204 0.0341,0.21891 0.0758,0.21891 0.0416,0 0.0758,-0.30713 0.0758,-0.68254 z m 5.15682,-15.77379 c 0,-0.22619 -0.0868,-0.37916 -0.2151,-0.37916 -0.11832,0 -0.32307,-0.0414 -0.45502,-0.092 -0.37105,-0.14239 -0.29478,0.33975 0.0972,0.6143 0.46385,0.32488 0.57294,0.29765 0.57294,-0.14308 z m 2.18902,-1.45217 c -0.35212,-0.38906 -0.52064,-0.36836 -0.52064,0.064 0,0.422 0.64707,0.81565 0.73373,0.44634 0.0282,-0.12004 -0.0677,-0.34967 -0.21309,-0.51031 z m -0.84926,-0.28716 c -0.0326,-0.0946 -0.13142,-0.0946 -0.27807,0 -0.20223,0.13049 -0.20223,0.16311 0,0.29361 0.23328,0.15053 0.37829,-0.004 0.27807,-0.29361 z m -0.42973,-5.01002 c 0.17264,-0.11157 0.10863,-0.14761 -0.26542,-0.14937 -0.27112,0 -0.49294,0.066 -0.49294,0.14937 0,0.19263 0.46024,0.19263 0.75836,0 z m 0.59411,-1.22083 c 0.25903,-1.20781 0.21978,-1.66094 -0.14386,-1.66094 -0.16945,0 -0.33362,0.0853 -0.3648,0.1896 -0.25317,0.84647 -0.54407,1.7667 -0.62592,1.98001 -0.0813,0.21177 -0.005,0.25713 0.43583,0.25713 0.51931,0 0.53918,-0.0217 0.69875,-0.7658 z m -9.58596,-3.07077 c 0.13252,-0.085 0.0367,-0.31158 -0.34125,-0.80667 -0.28905,-0.37866 -0.52553,-0.76287 -0.52553,-0.85381 0,-0.091 -0.0369,-0.12848 -0.082,-0.0834 -0.0451,0.0451 -0.11876,0.56216 -0.16379,1.14911 l -0.0819,1.06721 0.50505,-0.17713 c 0.27778,-0.0974 0.58797,-0.23031 0.68931,-0.29529 z m -1.84846,-1.05861 c 0.0996,-1.04066 -0.009,-1.26063 -0.35034,-0.71315 -0.15697,0.25132 -0.24736,0.27698 -0.4999,0.14184 -0.5998,-0.32103 -0.59663,-0.058 0.008,0.58942 0.33631,0.36065 0.61145,0.76375 0.61145,0.89578 0,0.57979 0.14248,0.0176 0.2317,-0.91389 z"
           id="path5602"
           inkscape:connector-curvature="0"
           sodipodi:nodetypes="cccsscccccccscscsscccccccssscssssscssccccssscscccsscsssccssscccccscscscsccccsscsccscsscccccccssscccsccccscsscccccccssscccsccscccsscscccscsccscsccsccscsscscscscccscccccscsccccccscsccscccscscccsccscsccscccccscccccccccccccccccsscscscscscccccccscccccccccscccsscccccscccccssccssccscsccccccccscsscsssccscscscccccscc" />
        <path
           style="fill:#ffffff;fill-opacity:1;fill-rule:evenodd;stroke:#000000;stroke-width:0.61768925px;stroke-linecap:butt;stroke-linejoin:miter;stroke-opacity:1"
           d="m 205.38501,346.29491 3.52966,-1.10301 2.86784,0.4412 2.64724,1.98543 -1.32362,0 -0.2206,2.20603 -7.50052,0.2206 z"
           id="path5650"
           inkscape:connector-curvature="0"
           sodipodi:nodetypes="cccccccc" />
        <path
           style="fill:#ffffff;fill-opacity:1;fill-rule:evenodd;stroke:#000000;stroke-width:0.61768925px;stroke-linecap:butt;stroke-linejoin:miter;stroke-opacity:1"
           d="m 214.16651,347.38046 11.69926,0.62396 0,-0.77995 4.67971,0.15599 0.15599,-0.93595 2.02786,0 0.15599,2.65184 -18.40683,1.40391 z"
           id="path5656"
           inkscape:connector-curvature="0"
           sodipodi:nodetypes="ccccccccc" />
        <ellipse
           id="circle4377"
           stroke-miterlimit="4"
           cy="346.31668"
           cx="176.55994"
           style="fill:none;stroke:#de2c68;stroke-width:2.82834148;stroke-miterlimit:4;stroke-dasharray:none;stroke-opacity:1"
           rx="58.074585"
           ry="59.067741" />
        <ellipse
           id="circle4379"
           stroke-miterlimit="4"
           cy="346.31644"
           cx="176.31215"
           style="fill:none;stroke:#de2c68;stroke-width:15.30184078;stroke-miterlimit:4;stroke-dasharray:none;stroke-opacity:1"
           rx="75.980736"
           ry="76.725471" />
        <polygon
           id="polygon4381"
           transform="matrix(2.3986576,0,0,2.2735939,48.396333,208.6049)"
           points="22,52 30,52 26,56 31,56 37,50 31,44 26,44 30,48 22,48 "
           style="fill:#ffcc33;fill-opacity:1" />
        <polygon
           id="polygon4383"
           transform="matrix(1.6468716,0,0,1.7044117,91.564553,288.97429)"
           points="73,41 64,50 73,59 81,59 75,53 88,53 88,47 75,47 81,41 "
           style="fill:#ffcc33;fill-opacity:1" />
        <path
           style="fill:none;fill-opacity:0.67058824;stroke:none;stroke-width:6.5999999;stroke-miterlimit:4;stroke-dasharray:6.6, 6.6;stroke-dashoffset:0;stroke-opacity:1"
           d="m 246.59051,346.48371 a 70.567388,70.567388 0 0 1 -70.56739,70.56738 70.567388,70.567388 0 0 1 -70.56738,-70.56738 70.567388,70.567388 0 0 1 70.56738,-70.56739 70.567388,70.567388 0 0 1 70.56739,70.56739 z"
           id="path4372"
           inkscape:connector-curvature="0" />
        <path
           style="fill:none;fill-rule:evenodd;stroke:none;stroke-width:1px;stroke-linecap:butt;stroke-linejoin:miter;stroke-opacity:1"
           d="m 189.35617,427.96679 c 26.59715,-5.72692 48.19457,-20.20337 61.8257,-48.62079"
           id="path4376"
           inkscape:connector-curvature="0"
           sodipodi:nodetypes="cc" />
        <path
           style="fill:none;fill-rule:evenodd;stroke:#000000;stroke-width:0.61768925px;stroke-linecap:butt;stroke-linejoin:miter;stroke-opacity:1"
           d="m 207.30295,347.53645 0.31199,1.5599"
           id="path5652"
           inkscape:connector-curvature="0"
           sodipodi:nodetypes="cc" />
        <path
           style="fill:none;fill-rule:evenodd;stroke:#000000;stroke-width:0.61768925px;stroke-linecap:butt;stroke-linejoin:miter;stroke-opacity:1"
           d="m 209.17483,347.38046 -0.15599,1.40392"
           id="path5654"
           inkscape:connector-curvature="0"
           sodipodi:nodetypes="cc" />
        <path
           style="fill:none;fill-rule:evenodd;stroke:#000000;stroke-width:0.61768925px;stroke-linecap:butt;stroke-linejoin:miter;stroke-opacity:1"
           d="m 180.92092,343.66978 -0.16544,1.35113"
           id="path5676"
           inkscape:path-effect="#path-effect5678"
           inkscape:original-d="m 180.92092,343.66978 -0.16544,1.35113"
           inkscape:connector-curvature="0"
           sodipodi:nodetypes="cc" />
        <path
           style="fill:none;fill-rule:evenodd;stroke:#000000;stroke-width:0.61768925px;stroke-linecap:butt;stroke-linejoin:miter;stroke-opacity:1"
           d="m 182.54779,343.75251 -0.0827,1.10297"
           id="path5680"
           inkscape:path-effect="#path-effect5682"
           inkscape:original-d="m 182.54779,343.75251 -0.0827,1.10297"
           inkscape:connector-curvature="0"
           sodipodi:nodetypes="cc" />
        <path
           style="fill:none;fill-rule:evenodd;stroke:#000000;stroke-width:0.61768925px;stroke-linecap:butt;stroke-linejoin:miter;stroke-opacity:1"
           d="m 184.20223,343.86281 -0.11029,1.13053"
           id="path5684"
           inkscape:path-effect="#path-effect5686"
           inkscape:original-d="m 184.20223,343.86281 -0.11029,1.13053"
           inkscape:connector-curvature="0"
           sodipodi:nodetypes="cc" />
        <path
           style="fill:none;fill-rule:evenodd;stroke:#000000;stroke-width:0.61768925px;stroke-linecap:butt;stroke-linejoin:miter;stroke-opacity:1"
           d="m 194.87337,341.84991 -0.16544,0.96507"
           id="path5688"
           inkscape:path-effect="#path-effect5690"
           inkscape:original-d="m 194.87337,341.84991 -0.16544,0.96507"
           inkscape:connector-curvature="0"
           sodipodi:nodetypes="cc" />
        <path
           style="fill:none;fill-rule:evenodd;stroke:#000000;stroke-width:0.61768925px;stroke-linecap:butt;stroke-linejoin:miter;stroke-opacity:1"
           d="m 196.19694,342.01535 -0.13788,0.8548"
           id="path5692"
           inkscape:path-effect="#path-effect5694"
           inkscape:original-d="m 196.19694,342.01535 -0.13788,0.8548"
           inkscape:connector-curvature="0"
           sodipodi:nodetypes="cc" />
        <path
           style="fill:none;fill-rule:evenodd;stroke:#000000;stroke-width:0.61768925px;stroke-linecap:butt;stroke-linejoin:miter;stroke-opacity:1"
           d="m 197.53961,341.945 0.0444,0.99549"
           id="path5696"
           inkscape:path-effect="#path-effect5698"
           inkscape:original-d="m 197.53961,341.945 0.0444,0.99549"
           inkscape:connector-curvature="0"
           sodipodi:nodetypes="cc" />
        <path
           style="fill:none;fill-rule:evenodd;stroke:#000000;stroke-width:0.61768925px;stroke-linecap:butt;stroke-linejoin:miter;stroke-opacity:1"
           d="m 188.44863,345.48968 0.19302,0.77206"
           id="path5700"
           inkscape:path-effect="#path-effect5702"
           inkscape:original-d="m 188.44863,345.48968 0.19302,0.77206"
           inkscape:connector-curvature="0"
           sodipodi:nodetypes="cc" />
        <path
           style="fill:none;fill-rule:evenodd;stroke:#000000;stroke-width:0.61768925px;stroke-linecap:butt;stroke-linejoin:miter;stroke-opacity:1"
           d="m 189.88247,345.10363 0.11031,0.68936"
           id="path5704"
           inkscape:path-effect="#path-effect5706"
           inkscape:original-d="m 189.88247,345.10363 0.11031,0.68936"
           inkscape:connector-curvature="0"
           sodipodi:nodetypes="cc" />
        <path
           style="fill:none;fill-rule:evenodd;stroke:#000000;stroke-width:0.61768925px;stroke-linecap:butt;stroke-linejoin:miter;stroke-opacity:1"
           d="m 191.4542,344.88305 0.0276,0.5239"
           id="path5708"
           inkscape:path-effect="#path-effect5710"
           inkscape:original-d="m 191.4542,344.88305 0.0276,0.5239"
           inkscape:connector-curvature="0"
           sodipodi:nodetypes="cc" />
        <path
           style="fill:none;fill-rule:evenodd;stroke:none;stroke-width:1.00492573px;stroke-linecap:butt;stroke-linejoin:miter;stroke-opacity:1"
           d="m 187.94266,428.72138 c 31.49578,-5.90743 62.7619,-28.54256 69.92058,-69.07"
           id="path4313"
           inkscape:connector-curvature="0"
           sodipodi:nodetypes="cc" />
      </g>
    </g>
  </g>
</svg>
